<?xml version="1.0" encoding="utf-8"?>
<!-- Generator: Adobe Illustrator 16.0.0, SVG Export Plug-In . SVG Version: 6.00 Build 0)  -->
<!DOCTYPE svg PUBLIC "-//W3C//DTD SVG 1.1//EN" "http://www.w3.org/Graphics/SVG/1.1/DTD/svg11.dtd">
<svg version="1.1" id="Layer_1" xmlns="http://www.w3.org/2000/svg" xmlns:xlink="http://www.w3.org/1999/xlink" x="0px" y="0px"
	 width="267.422px" height="250.489px" viewBox="0.003 274.756 267.422 250.489"
	 enable-background="new 0.003 274.756 267.422 250.489" xml:space="preserve">
<g id="iintrinsic_logo">
</g>
<g>
	<path fill="#030302" d="M170.535,512.014c2.895-1.219,4.261-4.289,3.585-7.696c-0.644-3.232-3.026-4.917-7.114-5.032
		c-0.957,0.237-1.908,0.643-2.87,0.684c-10.186,0.412-20.374,0.776-30.564,1.127c-1.829,0.063-3.661,0.009-6.148,0.009
		c1.949-1.606,3.263-2.858,4.73-3.868c10.932-7.529,21.865-15.065,32.865-22.481c2.923-1.976,4.403-4.705,4.52-8.189
		c0.214-6.432,0.218-12.87,0.298-19.31c0.023-1.958-0.239-3.961,0.062-5.868c0.768-4.853-2.062-8.48-6.711-8.232
		c-1.785,0.096-3.562,0.344-5.341,0.54c-12.847,1.418-25.672,2.399-38.46-0.688c-3.597-0.869-6.828,2.188-7.229,6.149
		c-0.149,1.47-0.724,3.053-1.539,4.252c-3.076,4.534-6.562,8.771-9.458,13.425c-2.941,4.721-0.014,10.091,5.243,10.271
		c0.847,0.028,1.752,0.187,2.517,0.556c2.976,1.435,5.581,1.008,7.74-1.607c4.591-5.561,9.109-11.188,13.685-16.761
		c0.43-0.521,1.05-1.231,1.589-1.237c7.209-0.082,14.42-0.054,22.309-0.054c0,4.669-0.216,9.772,0.09,14.841
		c0.158,2.646-0.618,4.006-2.688,5.327c-16.006,10.226-31.895,20.631-44.919,35.116c-0.07,0.075-0.139,0.147-0.207,0.223
		c-1.066,1.392-2.096,2.812-3.202,4.167c-1.863,2.28-2.449,4.81-1.325,7.621c0.135,0.336,0.288,0.644,0.455,0.926
		c1.174,1.976,3.13,2.659,5.384,2.756c0.016-0.007,0.034-0.011,0.05-0.016c1.088-0.333,2.598-0.333,3.146-1.103
		c2.276-3.194,5.564-3.042,8.642-3.134c14.604-0.441,29.214-0.704,43.823-1.028c1.056-0.212,2.116-0.396,3.165-0.64
		C167.957,512.744,169.305,512.531,170.535,512.014z"/>
	<g>
		<path fill="#F0CD0B" d="M107.83,518.975c-2.254-0.097-4.21-0.781-5.384-2.756c-0.167-0.28-0.32-0.59-0.455-0.926
			c-1.124-2.812-0.538-5.343,1.325-7.621c1.105-1.355,2.136-2.775,3.202-4.167c0.068-0.075,0.139-0.147,0.207-0.223
			c-2.251-2.65-5.581-4.394-9.482-4.665c-4.536-0.315-9.059-0.808-13.845-1.244c-2.646-38.261-2.946-76.451-3.21-114.5
			c4.363,0.257,8.369,0.48,12.371,0.726c4.52,0.28,9.1,0.185,13.542,0.962c6.271,1.097,12.317-2.33,14.177-8.716
			c1.83-6.287-1.028-13.176-6.882-15.375c-3.32-1.248-6.952-2.048-10.467-2.159c-7.551-0.239-15.137,0.521-22.573-1.595
			c-0.004-0.101-0.004-0.201-0.009-0.3c-2.788-0.156-5.607-0.609-8.414-0.759c-3.333-0.961-6.521-0.802-9.751,0.732
			c-0.827,0.394-2.105,0.437-2.907,0.038c-2.959-1.471-5.953-1.609-9.156-1.274c-12.523,1.301-24.958,4.189-37.667,2.49
			c-0.859-0.113-1.789,0.095-2.648,0.315c-2.339,0.599-4.351,1.803-5.923,3.437c-2.587,2.567-4.033,6.269-3.864,10.413
			c0.259,6.301,4.757,11.68,11.163,12.02c7.657,0.408,15.362,0.077,23.035-0.227c4.313-0.169,8.604-0.935,13.395-1.487
			c-3.143,38.257-0.536,76.117-1.019,113.672c-6.296,0-12.394-0.011-18.492,0.007c-2.697,0.008-5.133,0.735-7.105,2.67
			c-2.938,2.213-4.847,5.725-4.929,9.742c-0.169,8.045,4.534,13.697,11.781,13.942c6.262,0.216,12.538,0.073,18.796,0.377
			c16.092,0.782,32.186,1.591,48.26,2.672c4.25,0.287,7.723-0.697,10.522-3.317c0.96-0.828,1.791-1.807,2.458-2.919
			C107.862,518.964,107.846,518.968,107.83,518.975z"/>
		<path fill="#F0CE0B" d="M35.596,297.081c1.043,4.108,1.978,8.255,3.213,12.302c2.838,9.288,7.732,16.908,17.625,17.969
			c6.409,0.687,13.088,0.27,19.463-0.836c3.883-0.674,6.795-3.052,8.43-6.217c2.085-3.671,2.589-8.359,0.498-12.277
			c-0.353-0.662-0.345-1.593-0.349-2.398c-0.022-3.378,0.383-6.808-0.036-10.125c-1.625-12.811-9.92-20.586-24.804-20.743
			c-1.154,0.275-2.738,0.597-4.577,0.991c-0.466,0.079-0.937,0.166-1.406,0.264c-2.614,0.552-5.233,1.196-7.767,2.062
			c-0.42,0.133-0.843,0.264-1.264,0.406c-3.222,1.08-5.893,3.912-7.533,7.322C35.332,289.293,34.667,293.421,35.596,297.081z"/>
	</g>
	<g>
		<path fill="#F0CD0B" d="M259.998,360.674c-3.324-1.25-6.952-2.049-10.469-2.159c-7.584-0.241-15.207,0.528-22.675-1.622
			c-0.75-0.216-1.607,0.023-2.405-0.066c-1.748-0.192-3.567-0.202-5.219-0.751c-3.588-1.194-6.993-1.124-10.449,0.518
			c-0.827,0.394-2.105,0.437-2.909,0.038c-2.959-1.472-5.953-1.611-9.154-1.276c-12.523,1.304-24.96,4.187-37.667,2.49
			c-0.857-0.113-1.787,0.095-2.648,0.316c-6.093,1.559-9.994,7.222-9.602,13.879c0.361,6.173,4.833,11.452,11.112,11.784
			c7.658,0.406,15.364,0.086,23.039-0.217c4.318-0.171,8.619-0.94,13.418-1.498c-3.096,38.302-0.527,76.24-0.99,113.879
			c-6.364,0-12.522-0.011-18.681,0.006c-2.97,0.007-5.629,0.89-7.692,3.291c4.088,0.113,6.468,1.8,7.114,5.032
			c0.676,3.409-0.69,6.479-3.585,7.696c-1.229,0.518-2.578,0.73-3.881,1.039c-1.048,0.247-2.109,0.428-3.164,0.641
			c2.274,5.643,6.256,8.526,12.11,8.554c6.179,0.023,12.363-0.023,18.532,0.278c15.914,0.778,31.828,1.597,47.724,2.674
			c7.752,0.522,13.857-4.256,14.497-12.027c0.625-7.604-4.843-13.821-12.509-14.354c-4.534-0.314-9.059-0.808-13.847-1.244
			c-2.646-38.259-2.947-76.451-3.209-114.498c4.363,0.255,8.369,0.48,12.372,0.726c4.52,0.279,9.099,0.185,13.541,0.964
			c6.271,1.097,12.317-2.332,14.176-8.718C268.707,369.76,265.848,362.873,259.998,360.674z"/>
		<path fill="#F0CE0B" d="M185.845,310.097c2.812,8.998,7.783,16.225,17.289,17.243c6.409,0.687,13.047,0.125,19.476-0.759
			c7.598-1.046,12.718-11.046,8.818-18.355c-0.354-0.662-0.345-1.591-0.351-2.398c-0.023-3.378,0.383-6.808-0.036-10.125
			c-1.625-12.811-9.918-20.585-24.8-20.743c-3.069,0.737-9.178,1.771-15.015,3.725c-6.332,2.122-10.541,10.999-8.966,17.751
			C183.33,301.02,184.442,305.615,185.845,310.097z"/>
	</g>
</g>
</svg>
