<?xml version="1.0" encoding="utf-8"?>
<!-- Generator: Adobe Illustrator 16.0.0, SVG Export Plug-In . SVG Version: 6.00 Build 0)  -->
<!DOCTYPE svg PUBLIC "-//W3C//DTD SVG 1.1//EN" "http://www.w3.org/Graphics/SVG/1.1/DTD/svg11.dtd">
<svg version="1.1" id="Layer_1" xmlns="http://www.w3.org/2000/svg" xmlns:xlink="http://www.w3.org/1999/xlink" x="0px" y="0px"
	 width="655px" height="175.491px" viewBox="0 0 655 175.491" style="enable-background:new 0 0 655 175.491;" xml:space="preserve"
	>
<style type="text/css">
<![CDATA[
	.st0{fill:#F0CD0B;}
	.st1{fill:#F0CE0B;}
	.st2{fill:#030302;}
]]>
</style>
<g>
	<path class="st2" d="M111.654,161.088c1.818-0.766,2.677-2.694,2.253-4.835c-0.405-2.03-1.901-3.089-4.47-3.161
		c-0.601,0.148-1.198,0.404-1.804,0.43c-6.398,0.259-12.799,0.488-19.201,0.708c-1.148,0.04-2.299,0.005-3.861,0.005
		c1.224-1.009,2.049-1.795,2.971-2.43c6.868-4.73,13.736-9.465,20.646-14.123c1.838-1.242,2.767-2.957,2.84-5.146
		c0.135-4.04,0.138-8.085,0.188-12.131c0.015-1.23-0.15-2.488,0.039-3.687c0.482-3.049-1.296-5.328-4.217-5.172
		c-1.121,0.061-2.236,0.216-3.355,0.34c-8.07,0.891-16.129,1.507-24.162-0.434c-2.26-0.546-4.289,1.375-4.541,3.863
		c-0.094,0.924-0.455,1.918-0.967,2.672c-1.933,2.849-4.122,5.51-5.941,8.434c-1.848,2.965-0.01,6.34,3.293,6.453
		c0.532,0.018,1.102,0.116,1.581,0.349c1.869,0.901,3.507,0.633,4.862-1.011c2.885-3.492,5.723-7.027,8.598-10.529
		c0.27-0.327,0.659-0.773,0.998-0.777c4.529-0.051,9.059-0.033,14.015-0.033c0,2.934-0.136,6.139,0.058,9.323
		c0.099,1.663-0.389,2.517-1.689,3.347c-10.055,6.424-20.037,12.961-28.22,22.061c-0.044,0.049-0.087,0.094-0.13,0.141
		c-0.67,0.874-1.317,1.766-2.012,2.617c-1.17,1.434-1.538,3.021-0.832,4.788c0.084,0.212,0.18,0.405,0.285,0.581
		c0.738,1.242,1.967,1.672,3.383,1.732c0.01-0.004,0.021-0.008,0.031-0.01c0.684-0.209,1.633-0.209,1.977-0.693
		c1.43-2.006,3.496-1.91,5.43-1.969c9.174-0.277,18.354-0.441,27.531-0.646c0.662-0.133,1.329-0.249,1.988-0.401
		C110.034,161.547,110.882,161.414,111.654,161.088z"/>
	<g>
		<path class="st0" d="M72.261,165.461c-1.416-0.061-2.645-0.49-3.383-1.73c-0.105-0.176-0.201-0.371-0.285-0.582
			c-0.706-1.766-0.338-3.356,0.832-4.787c0.694-0.852,1.342-1.744,2.012-2.619c0.043-0.047,0.087-0.092,0.13-0.139
			c-1.414-1.666-3.506-2.761-5.957-2.932c-2.85-0.198-5.69-0.508-8.698-0.781c-1.661-24.037-1.85-48.029-2.016-71.933
			c2.74,0.161,5.257,0.302,7.771,0.456c2.839,0.176,5.717,0.117,8.508,0.605c3.939,0.688,7.737-1.465,8.906-5.477
			c1.15-3.949-0.646-8.277-4.324-9.658c-2.085-0.784-4.367-1.287-6.574-1.357c-4.744-0.15-9.51,0.328-14.182-1.002
			c-0.002-0.062-0.002-0.126-0.006-0.188c-1.752-0.099-3.522-0.383-5.285-0.477c-2.094-0.605-4.097-0.504-6.127,0.459
			c-0.52,0.248-1.322,0.274-1.826,0.023c-1.859-0.924-3.738-1.011-5.752-0.801c-7.867,0.818-15.68,2.633-23.664,1.564
			c-0.539-0.071-1.123,0.061-1.663,0.198c-1.47,0.376-2.733,1.132-3.722,2.159c-1.625,1.613-2.533,3.938-2.428,6.542
			c0.163,3.958,2.989,7.337,7.014,7.551c4.81,0.257,9.65,0.049,14.471-0.142c2.71-0.106,5.405-0.588,8.416-0.935
			c-1.975,24.034-0.337,47.819-0.641,71.413c-3.955,0-7.786-0.007-11.617,0.004c-1.694,0.005-3.225,0.462-4.463,1.678
			c-1.846,1.391-3.046,3.596-3.098,6.12c-0.106,5.054,2.848,8.604,7.4,8.759c3.934,0.136,7.877,0.047,11.809,0.236
			c10.109,0.492,20.221,1,30.318,1.68c2.67,0.18,4.852-0.438,6.611-2.084c0.604-0.521,1.125-1.136,1.543-1.834
			C72.281,165.455,72.271,165.457,72.261,165.461z"/>
		<path class="st1" d="M26.882,26.061c0.654,2.581,1.242,5.187,2.018,7.729c1.783,5.835,4.857,10.623,11.074,11.289
			c4.025,0.431,8.221,0.169,12.227-0.525c2.439-0.424,4.27-1.918,5.296-3.906c1.31-2.306,1.626-5.252,0.312-7.713
			c-0.222-0.416-0.217-1-0.219-1.507c-0.015-2.122,0.24-4.277-0.022-6.361c-1.021-8.048-6.232-12.933-15.583-13.031
			c-0.726,0.173-1.72,0.375-2.876,0.623c-0.292,0.05-0.588,0.104-0.883,0.166c-1.643,0.347-3.288,0.751-4.879,1.295
			c-0.265,0.083-0.529,0.166-0.794,0.255c-2.024,0.678-3.702,2.458-4.732,4.6C26.716,21.168,26.298,23.761,26.882,26.061z"/>
	</g>
	<g>
		<path class="st0" d="M167.858,66.012c-2.088-0.785-4.367-1.287-6.576-1.356c-4.766-0.151-9.555,0.332-14.246-1.019
			c-0.471-0.136-1.01,0.015-1.512-0.042c-1.098-0.12-2.24-0.126-3.278-0.472c-2.255-0.75-4.394-0.706-6.564,0.325
			c-0.519,0.247-1.322,0.274-1.827,0.024c-1.859-0.926-3.74-1.014-5.751-0.803c-7.868,0.818-15.681,2.631-23.664,1.564
			c-0.539-0.071-1.123,0.06-1.663,0.199c-3.828,0.979-6.279,4.536-6.033,8.719c0.228,3.879,3.036,7.193,6.982,7.403
			c4.811,0.255,9.65,0.054,14.473-0.138c2.713-0.106,5.414-0.59,8.43-0.939c-1.944,24.062-0.33,47.896-0.621,71.542
			c-3.999,0-7.867-0.007-11.736,0.004c-1.865,0.005-3.537,0.56-4.833,2.067c2.568,0.07,4.063,1.131,4.47,3.161
			c0.424,2.142-0.435,4.071-2.253,4.835c-0.772,0.326-1.62,0.459-2.438,0.653c-0.659,0.155-1.324,0.269-1.987,0.403
			c1.429,3.544,3.93,5.355,7.607,5.373c3.882,0.014,7.767-0.015,11.643,0.174c9.997,0.49,19.995,1.004,29.981,1.681
			c4.869,0.328,8.706-2.674,9.107-7.556c0.394-4.777-3.042-8.684-7.858-9.018c-2.849-0.197-5.69-0.508-8.698-0.781
			c-1.662-24.036-1.852-48.029-2.016-71.932c2.74,0.16,5.256,0.301,7.771,0.455c2.84,0.176,5.717,0.117,8.507,0.606
			c3.94,0.688,7.739-1.465,8.905-5.478C173.329,71.721,171.534,67.393,167.858,66.012z"/>
		<path class="st1" d="M121.272,34.238c1.767,5.652,4.891,10.193,10.861,10.833c4.027,0.431,8.197,0.079,12.235-0.477
			c4.773-0.658,7.99-6.94,5.54-11.532c-0.223-0.416-0.217-1-0.221-1.507c-0.014-2.123,0.241-4.277-0.021-6.361
			c-1.021-8.048-6.232-12.932-15.58-13.032c-1.928,0.463-5.766,1.112-9.434,2.34c-3.979,1.333-6.622,6.91-5.633,11.152
			C119.692,28.535,120.392,31.422,121.272,34.238z"/>
	</g>
	<path d="M191.308,90.117h2.02l1.443,8.947c4.618-3.078,9.598-5.557,14.938-7.432c5.34-1.877,10.752-2.814,16.235-2.814
		c4.907,0,9.14,1.132,12.7,3.391c3.559,2.262,6.277,5.268,8.154,9.021c1.876,3.753,2.814,7.794,2.814,12.123v53.397h-3.464v-53.397
		c0-6.062-1.829-11.136-5.484-15.226c-3.657-4.089-8.564-6.134-14.721-6.134c-5.87,0-11.018,0.698-15.442,2.093
		c-4.426,1.396-9.669,3.729-15.73,6.999v65.665h-3.463V90.117z"/>
	<path d="M278.185,143.948l0.289-50.656h-12.412v-2.31l12.123-0.865l1.154-21.504h2.31v21.504h25.256v3.175h-25.256v50.656
		c0,7.505,1.419,12.556,4.258,15.153c2.837,2.598,6.325,4.09,10.463,4.475l9.236,0.865v2.309h-7.938
		C284.583,166.75,278.088,159.151,278.185,143.948z"/>
	<path d="M325.81,90.117h2.309l1.154,14.576c4.33-4.907,8.948-8.707,13.855-11.401c4.906-2.692,10.293-4.041,16.164-4.041
		c3.174,0,5.771,0.288,7.793,0.866v3.463c-2.887-0.576-5.484-0.865-7.793-0.865c-5.773,0-10.777,1.107-15.01,3.319
		c-4.234,2.214-9.236,5.87-15.01,10.968v59.748h-3.463V90.117z"/>
	<path d="M383.897,73.881c-0.34-0.336-0.506-0.744-0.506-1.227v-8.947c0-1.155,0.576-1.732,1.732-1.732h1.586
		c1.059,0,1.588,0.577,1.588,1.732v8.947c0,1.154-0.529,1.732-1.588,1.732h-1.586C384.642,74.387,384.233,74.219,383.897,73.881z
		 M384.112,90.117h3.465v76.633h-3.465V90.117z"/>
	<path d="M413.841,90.117h2.021l1.443,8.947c4.617-3.078,9.598-5.557,14.938-7.432c5.34-1.877,10.75-2.814,16.234-2.814
		c4.908,0,9.141,1.132,12.701,3.391c3.559,2.262,6.277,5.268,8.154,9.021c1.875,3.753,2.814,7.794,2.814,12.123v53.397h-3.465
		v-53.397c0-6.062-1.828-11.136-5.484-15.226c-3.656-4.089-8.564-6.134-14.721-6.134c-5.869,0-11.018,0.698-15.441,2.093
		c-4.426,1.396-9.67,3.729-15.73,6.999v65.665h-3.465V90.117z"/>
	<path d="M507.864,167.328c-5.822-0.194-10.561-0.386-14.215-0.578v-2.309h29.439c4.619,0,8.395-0.361,11.33-1.082
		c2.934-0.723,5.289-2.188,7.072-4.402c1.779-2.212,2.67-5.531,2.67-9.958v-4.185c0-4.619-1.516-8.178-4.547-10.68
		s-7.576-3.753-13.639-3.753h-9.812c-7.602,0-13.303-1.299-17.104-3.896s-5.699-7.119-5.699-13.565v-3.753
		c0-6.927,1.996-11.954,5.988-15.081c3.992-3.125,9.98-4.69,17.969-4.69c4.135,0,8.994,0.097,14.576,0.288
		c5.578,0.194,9.908,0.434,12.988,0.723v2.309h-27.564c-6.928,0-12.076,1.204-15.443,3.607c-3.369,2.406-5.051,6.688-5.051,12.845
		v3.753c0,5.678,1.588,9.43,4.764,11.256c3.174,1.829,8.031,2.742,14.576,2.742h9.812c6.543,0,11.785,1.541,15.73,4.619
		c3.945,3.08,5.918,7.504,5.918,13.277v4.185c0,7.122-2.189,12.003-6.566,14.648c-4.379,2.647-10.369,3.969-17.969,3.969
		C518.761,167.616,513.685,167.52,507.864,167.328z"/>
	<path d="M569.198,73.881c-0.34-0.336-0.506-0.744-0.506-1.227v-8.947c0-1.155,0.576-1.732,1.732-1.732h1.586
		c1.059,0,1.588,0.577,1.588,1.732v8.947c0,1.154-0.529,1.732-1.588,1.732h-1.586C569.942,74.387,569.534,74.219,569.198,73.881z
		 M569.413,90.117h3.465v76.633h-3.465V90.117z"/>
	<path d="M610.04,164.369c-4.283-2.164-7.674-6.133-10.176-11.906s-3.752-13.805-3.752-24.102c0-10.294,1.203-18.279,3.607-23.957
		c2.404-5.676,5.748-9.598,10.031-11.762c4.279-2.165,9.547-3.247,15.803-3.247c8.754,0,16.836,0.288,24.246,0.866v2.309h-24.246
		c-5.678,0-10.391,0.988-14.143,2.959c-3.754,1.973-6.664,5.628-8.732,10.968c-2.07,5.34-3.102,12.821-3.102,22.442
		c0,13.373,2.283,22.635,6.854,27.781c4.57,5.148,10.943,7.721,19.123,7.721h25.4v2.309c-0.865,0-2.359,0.096-4.475,0.289
		c-7.697,0.383-14.672,0.577-20.926,0.577C619.493,167.616,614.319,166.534,610.04,164.369z"/>
</g>
<g>
</g>
<g>
</g>
<g>
</g>
<g>
</g>
<g>
</g>
<g>
</g>
</svg>
